<svg xmlns="http://www.w3.org/2000/svg"
	xmlns:xlink="http://www.w3.org/1999/xlink" viewBox="55 0 525 500" version="1.1">
	<g id="surface1">
		<path style=" stroke:rgb(0.392151%,59.214783%,62.35199%);stroke-width:1;fill-rule:nonzero;fill:rgb(0.392151%,59.214783%,62.35199%);fill-opacity:1;" d="M 59 351 L 75 396 L 81 359 Z M 59 351 "/>
		<path style=" stroke:1pt;;fill-rule:nonzero;fill:rgb(0%,52.940369%,55.293274%);fill-opacity:1;" d="M 99 367 L 81 359 L 102 383 Z M 99 367 "/>
		<path style=" stroke:1pt;;fill-rule:nonzero;fill:rgb(0%,52.156067%,54.116821%);fill-opacity:1;" d="M 81 359 L 75 396 L 102 383 Z M 81 359 "/>
		<path style=" stroke:1pt;;fill-rule:nonzero;fill:rgb(0%,45.881653%,48.626709%);fill-opacity:1;" d="M 126 359 L 102 383 L 135 393 Z M 126 359 "/>
		<path style=" stroke:1pt;;fill-rule:nonzero;fill:rgb(0%,41.960144%,43.136597%);fill-opacity:1;" d="M 102 383 L 124 414 L 135 393 Z M 102 383 "/>
		<path style=" stroke:1pt;;fill-rule:nonzero;fill:rgb(30.587769%,79.998779%,100%);fill-opacity:1;" d="M 59 351 L 81 359 L 117 290 Z M 59 351 "/>
		<path style=" stroke:1pt;;fill-rule:nonzero;fill:rgb(0%,43.920898%,45.489502%);fill-opacity:1;" d="M 102 383 L 75 396 L 124 414 Z M 102 383 "/>
		<path style=" stroke:1pt;;fill-rule:nonzero;fill:rgb(0.392151%,52.156067%,54.116821%);fill-opacity:1;" d="M 81 359 L 99 367 L 126 359 Z M 81 359 "/>
		<path style=" stroke:1pt;;fill-rule:nonzero;fill:rgb(0.392151%,56.469727%,59.606934%);fill-opacity:1;" d="M 117 290 L 81 359 L 126 359 Z M 117 290 "/>
		<path style=" stroke:1pt;;fill-rule:nonzero;fill:rgb(0.392151%,71.37146%,90.194702%);fill-opacity:1;" d="M 104 279 L 138 266 L 163 210 Z M 104 279 "/>
		<path style=" stroke:1pt;;fill-rule:nonzero;fill:rgb(1.176453%,69.802856%,87.841797%);fill-opacity:1;" d="M 104 279 L 117 290 L 138 266 Z M 104 279 "/>
		<path style=" stroke:1pt;;fill-rule:nonzero;fill:rgb(0.392151%,85.881042%,100%);fill-opacity:1;" d="M 138 266 L 117 290 L 150 283 Z M 138 266 "/>
		<path style=" stroke:1pt;;fill-rule:nonzero;fill:rgb(0.392151%,36.862183%,39.607239%);fill-opacity:1;" d="M 183 362 L 211 407 L 213 334 Z M 183 362 "/>
		<path style=" stroke:1pt;;fill-rule:nonzero;fill:rgb(0%,61.567688%,65.097046%);fill-opacity:1;" d="M 117 290 L 126 359 L 150 283 Z M 117 290 "/>
		<path style=" stroke:1pt;;fill-rule:nonzero;fill:rgb(0.392151%,52.940369%,56.469727%);fill-opacity:1;" d="M 150 283 L 126 359 L 170 355 Z M 150 283 "/>
		<path style=" stroke:1pt;;fill-rule:nonzero;fill:rgb(0.392151%,44.7052%,47.450256%);fill-opacity:1;" d="M 126 359 L 135 393 L 170 355 Z M 126 359 "/>
		<path style=" stroke:1pt;;fill-rule:nonzero;fill:rgb(0%,24.313354%,30.979919%);fill-opacity:1;" d="M 270 200 L 233 229 L 299 282 Z M 270 200 "/>
		<path style=" stroke:1pt;;fill-rule:nonzero;fill:rgb(1.176453%,82.351685%,86.273193%);fill-opacity:1;" d="M 138 266 L 150 283 L 180 248 Z M 138 266 "/>
		<path style=" stroke:1pt;;fill-rule:nonzero;fill:rgb(0%,89.01825%,92.547607%);fill-opacity:1;" d="M 163 210 L 138 266 L 180 248 Z M 163 210 "/>
		<path style=" stroke:1pt;;fill-rule:nonzero;fill:rgb(0.392151%,74.508667%,89.802551%);fill-opacity:1;" d="M 181 161 L 163 210 L 195 173 Z M 181 161 "/>
		<path style=" stroke:1pt;;fill-rule:nonzero;fill:rgb(0%,31.764221%,32.940674%);fill-opacity:1;" d="M 180 248 L 150 283 L 194 261 Z M 180 248 "/>
		<path style=" stroke:1pt;;fill-rule:nonzero;fill:rgb(0%,31.37207%,34.901428%);fill-opacity:1;" d="M 196 287 L 150 283 L 206 321 Z M 196 287 "/>
		<path style=" stroke:1pt;;fill-rule:nonzero;fill:rgb(0%,65.489197%,77.645874%);fill-opacity:1;" d="M 276 118 L 359 134 L 362 78 Z M 276 118 "/>
		<path style=" stroke:1pt;;fill-rule:nonzero;fill:rgb(0.784302%,48.234558%,52.156067%);fill-opacity:1;" d="M 150 283 L 170 355 L 206 321 Z M 150 283 "/>
		<path style=" stroke:1pt;;fill-rule:nonzero;fill:rgb(0.392151%,35.293579%,36.470032%);fill-opacity:1;" d="M 180 248 L 194 261 L 209 217 Z M 180 248 "/>
		<path style=" stroke:1pt;;fill-rule:nonzero;fill:rgb(0.392151%,87.449646%,90.194702%);fill-opacity:1;" d="M 163 210 L 180 248 L 209 217 Z M 163 210 "/>
		<path style=" stroke:1pt;;fill-rule:nonzero;fill:rgb(0.784302%,85.881042%,94.508362%);fill-opacity:1;" d="M 195 173 L 163 210 L 209 217 Z M 195 173 "/>
		<path style=" stroke:1pt;;fill-rule:nonzero;fill:rgb(0.392151%,66.665649%,74.116516%);fill-opacity:1;" d="M 362 78 L 386 96 L 408 39 Z M 362 78 "/>
		<path style=" stroke:1pt;;fill-rule:nonzero;fill:rgb(0.392151%,36.862183%,39.607239%);fill-opacity:1;" d="M 183 362 L 144 407 L 211 407 Z M 183 362 "/>
		<path style=" stroke:1pt;;fill-rule:nonzero;fill:rgb(0.392151%,30.979919%,36.470032%);fill-opacity:1;" d="M 196 287 L 206 321 L 221 267 Z M 196 287 "/>
		<path style=" stroke:1pt;;fill-rule:nonzero;fill:rgb(0%,28.234863%,27.842712%);fill-opacity:1;" d="M 209 217 L 194 261 L 233 229 Z M 209 217 "/>
		<path style=" stroke:1pt;;fill-rule:nonzero;fill:rgb(0%,61.567688%,69.802856%);fill-opacity:1;" d="M 195 173 L 270 200 L 276 118 Z M 195 173 "/>
		<path style=" stroke:1pt;;fill-rule:nonzero;fill:rgb(0.392151%,36.862183%,39.607239%);fill-opacity:1;" d="M 221 267 L 206 321 L 248 324 Z M 221 267 "/>
		<path style=" stroke:1pt;;fill-rule:nonzero;fill:rgb(0.392151%,37.254333%,39.99939%);fill-opacity:1;" d="M 248 324 L 213 334 L 256 354 Z M 248 324 "/>
		<path style=" stroke:1pt;;fill-rule:nonzero;fill:rgb(0.392151%,36.862183%,39.607239%);fill-opacity:1;" d="M 213 334 L 211 407 L 256 354 Z M 213 334 "/>
		<path style=" stroke:1pt;;fill-rule:nonzero;fill:rgb(1.176453%,75.68512%,99.215698%);fill-opacity:1;" d="M 245 105 L 195 173 L 276 118 Z M 245 105 "/>
		<path style=" stroke:1pt;;fill-rule:nonzero;fill:rgb(0%,91.763306%,96.076965%);fill-opacity:1;" d="M 195 173 L 209 217 L 270 200 Z M 195 173 "/>
		<path style=" stroke:1pt;;fill-rule:nonzero;fill:rgb(0%,29.803467%,35.293579%);fill-opacity:1;" d="M 209 217 L 233 229 L 270 200 Z M 209 217 "/>
		<path style=" stroke:1pt;;fill-rule:nonzero;fill:rgb(0.392151%,36.862183%,39.607239%);fill-opacity:1;" d="M 221 267 L 248 324 L 299 282 Z M 221 267 "/>
		<path style=" stroke:1pt;;fill-rule:nonzero;fill:rgb(0.392151%,27.058411%,32.156372%);fill-opacity:1;" d="M 233 229 L 221 267 L 299 282 Z M 233 229 "/>
		<path style=" stroke:1pt;;fill-rule:nonzero;fill:rgb(0%,20.391846%,33.724976%);fill-opacity:1;" d="M 359 134 L 270 200 L 393 194 Z M 359 134 "/>
		<path style=" stroke:1pt;;fill-rule:nonzero;fill:rgb(0.392151%,36.862183%,39.607239%);fill-opacity:1;" d="M 299 282 L 248 324 L 330 329 Z M 299 282 "/>
		<path style=" stroke:1pt;;fill-rule:nonzero;fill:rgb(0.392151%,36.862183%,39.215088%);fill-opacity:1;" d="M 248 324 L 256 354 L 330 329 Z M 248 324 "/>
		<path style=" stroke:1pt;;fill-rule:nonzero;fill:rgb(0.784302%,29.411316%,34.117126%);fill-opacity:1;" d="M 444 195 L 393 194 L 449 262 Z M 444 195 "/>
		<path style=" stroke:1pt;;fill-rule:nonzero;fill:rgb(0%,69.802856%,81.175232%);fill-opacity:1;" d="M 245 105 L 276 118 L 362 78 Z M 245 105 "/>
		<path style=" stroke:1pt;;fill-rule:nonzero;fill:rgb(0.392151%,47.450256%,58.430481%);fill-opacity:1;" d="M 276 118 L 270 200 L 359 134 Z M 276 118 "/>
		<path style=" stroke:1pt;;fill-rule:nonzero;fill:rgb(0%,50.587463%,60.391235%);fill-opacity:1;" d="M 362 78 L 359 134 L 386 96 Z M 362 78 "/>
		<path style=" stroke:1pt;;fill-rule:nonzero;fill:rgb(0.392151%,43.920898%,50.979614%);fill-opacity:1;" d="M 299 282 L 330 329 L 379 275 Z M 299 282 "/>
		<path style=" stroke:1pt;;fill-rule:nonzero;fill:rgb(0.392151%,49.411011%,59.214783%);fill-opacity:1;" d="M 299 282 L 379 275 L 393 194 Z M 299 282 "/>
		<path style=" stroke:1pt;;fill-rule:nonzero;fill:rgb(0.392151%,37.646484%,40.391541%);fill-opacity:1;" d="M 270 200 L 299 282 L 393 194 Z M 270 200 "/>
		<path style=" stroke:1pt;;fill-rule:nonzero;fill:rgb(0.392151%,47.842407%,57.254028%);fill-opacity:1;" d="M 449 262 L 413 351 L 480 338 Z M 449 262 "/>
		<path style=" stroke:1pt;;fill-rule:nonzero;fill:rgb(0.392151%,47.842407%,57.254028%);fill-opacity:1;" d="M 393 194 L 379 275 L 449 262 Z M 393 194 "/>
		<path style=" stroke:1pt;;fill-rule:nonzero;fill:rgb(0.392151%,49.411011%,59.214783%);fill-opacity:1;" d="M 335 392 L 404 418 L 413 351 Z M 335 392 "/>
		<path style=" stroke:1pt;;fill-rule:nonzero;fill:rgb(0.392151%,49.411011%,59.214783%);fill-opacity:1;" d="M 379 275 L 330 329 L 413 351 Z M 379 275 "/>
		<path style=" stroke:1pt;;fill-rule:nonzero;fill:rgb(0.784302%,49.803162%,59.214783%);fill-opacity:1;" d="M 330 329 L 335 392 L 413 351 Z M 330 329 "/>
		<path style=" stroke:1pt;;fill-rule:nonzero;fill:rgb(0.784302%,16.470337%,23.921204%);fill-opacity:1;" d="M 433 124 L 359 134 L 435 170 Z M 433 124 "/>
		<path style=" stroke:1pt;;fill-rule:nonzero;fill:rgb(10.588074%,32.156372%,36.862183%);fill-opacity:1;" d="M 359 134 L 393 194 L 435 170 Z M 359 134 "/>
		<path style=" stroke:1pt;;fill-rule:nonzero;fill:rgb(0.392151%,49.411011%,59.214783%);fill-opacity:1;" d="M 379 275 L 413 351 L 449 262 Z M 379 275 "/>
		<path style=" stroke:1pt;;fill-rule:nonzero;fill:rgb(0.392151%,49.411011%,59.214783%);fill-opacity:1;" d="M 480 338 L 413 351 L 511 393 Z M 480 338 "/>
		<path style=" stroke:1pt;;fill-rule:nonzero;fill:rgb(0.392151%,24.313354%,32.940674%);fill-opacity:1;" d="M 433 124 L 435 170 L 474 141 Z M 433 124 "/>
		<path style=" stroke:1pt;;fill-rule:nonzero;fill:rgb(0.392151%,11.764526%,18.823242%);fill-opacity:1;" d="M 534 298 L 521 322 L 577 334 Z M 534 298 "/>
		<path style=" stroke:1pt;;fill-rule:nonzero;fill:rgb(1.960754%,15.686035%,23.136902%);fill-opacity:1;" d="M 433 124 L 474 141 L 501 91 Z M 433 124 "/>
		<path style=" stroke:1pt;;fill-rule:nonzero;fill:rgb(0.784302%,24.705505%,28.234863%);fill-opacity:1;" d="M 444 195 L 449 262 L 483 232 Z M 444 195 "/>
		<path style=" stroke:1pt;;fill-rule:nonzero;fill:rgb(0.392151%,25.881958%,31.37207%);fill-opacity:1;" d="M 449 262 L 480 338 L 492 274 Z M 449 262 "/>
		<path style=" stroke:1pt;;fill-rule:nonzero;fill:rgb(0.392151%,28.234863%,31.37207%);fill-opacity:1;" d="M 444 195 L 483 232 L 497 204 Z M 444 195 "/>
		<path style=" stroke:1pt;;fill-rule:nonzero;fill:rgb(0.392151%,49.411011%,59.214783%);fill-opacity:1;" d="M 413 351 L 404 418 L 511 393 Z M 413 351 "/>
		<path style=" stroke:1pt;;fill-rule:nonzero;fill:rgb(0%,20.783997%,27.058411%);fill-opacity:1;" d="M 497 204 L 483 232 L 548 227 Z M 497 204 "/>
		<path style=" stroke:1pt;;fill-rule:nonzero;fill:rgb(0%,18.03894%,26.274109%);fill-opacity:1;" d="M 492 274 L 480 338 L 521 322 Z M 492 274 "/>
		<path style=" stroke:1pt;;fill-rule:nonzero;fill:rgb(18.823242%,25.097656%,42.352295%);fill-opacity:1;" d="M 492 274 L 521 322 L 534 298 Z M 492 274 "/>
	</g>
</svg>