<?xml version="1.0" encoding="iso-8859-1"?>
<svg xmlns="http://www.w3.org/2000/svg" xmlns:xlink="http://www.w3.org/1999/xlink" version="1.1" id="Capa_1" x="0px" y="0px" viewBox="0 0 512 512" style="enable-background:new 0 0 512 512;" xml:space="preserve">
<g>
	<path style="fill:#4B3F4E;" d="M394.012,43.258c-2.108,0-4.216-0.805-5.826-2.414l-26.779-26.779   c-3.219-3.219-3.219-8.433,0-11.651s8.433-3.219,11.651,0l26.779,26.779c3.219,3.219,3.219,8.433,0,11.651   C398.229,42.453,396.12,43.258,394.012,43.258z"/>
	<path style="fill:#4B3F4E;" d="M355.84,45.261c-1.32,0-2.663-0.318-3.903-0.99l-38.052-20.543   c-4.007-2.16-5.504-7.161-3.339-11.164c2.156-4.007,7.177-5.5,11.16-3.335l38.052,20.543c4.007,2.16,5.504,7.161,3.339,11.164   C361.609,43.696,358.769,45.261,355.84,45.261z"/>
	<path style="fill:#4B3F4E;" d="M408.431,42.107c-4.554,0-8.24-3.689-8.24-8.24V16.479c0-4.55,3.685-8.24,8.24-8.24   s8.24,3.689,8.24,8.24v17.388C416.671,38.418,412.986,42.107,408.431,42.107z"/>
</g>
<g>
	<path style="fill:#5D5360;" d="M309.557,247.186l-17.303,23.071c-4.668,6.224-11.995,9.887-19.775,9.887h-28.838l17.303-23.071   c4.668-6.224,11.995-9.887,19.775-9.887H309.557z"/>
	<path style="fill:#5D5360;" d="M235.401,107.114l17.303,23.071c4.668,6.224,11.995,9.887,19.775,9.887h28.838l-17.303-23.071   c-4.668-6.224-11.995-9.887-19.775-9.887C264.239,107.114,235.401,107.114,235.401,107.114z"/>
</g>
<path style="fill:#4B3F4E;" d="M272.479,148.312h37.078c4.554,0,8.24-3.689,8.24-8.24c0-4.55-3.685-8.24-8.24-8.24h-37.078  c-5.158,0-10.09-2.466-13.188-6.598l-9.881-13.172c-6.204-8.26-16.061-13.188-26.368-13.188h-28.838c-4.554,0-8.24,3.689-8.24,8.24  c0,4.55,3.685,8.24,8.24,8.24h28.838c5.158,0,10.09,2.466,13.188,6.598l9.881,13.172  C252.315,143.383,262.172,148.312,272.479,148.312z"/>
<path style="fill:#5D5360;" d="M400.192,247.186l17.303,23.071c4.668,6.224,11.995,9.887,19.775,9.887h28.838l-17.303-23.071  c-4.668-6.224-11.995-9.887-19.775-9.887H400.192z"/>
<path style="fill:#4B3F4E;" d="M466.108,271.905H437.27c-5.158,0-10.09-2.466-13.188-6.598l-9.881-13.172  c-6.204-8.26-16.061-13.188-26.368-13.188h-65.916c-10.307,0-20.164,4.928-26.368,13.188l-9.881,13.172  c-3.098,4.132-8.03,6.598-13.188,6.598h-28.838c-4.554,0-8.24,3.689-8.24,8.24c0,4.55,3.685,8.24,8.24,8.24h28.838  c10.307,0,20.164-4.928,26.368-13.188l9.881-13.172c3.098-4.132,8.03-6.598,13.188-6.598h65.916c5.158,0,10.09,2.466,13.188,6.598  l9.881,13.172c6.204,8.26,16.061,13.188,26.368,13.188h28.838c4.554,0,8.24-3.689,8.24-8.24  C474.348,275.594,470.663,271.905,466.108,271.905z"/>
<path style="fill:#5D5360;" d="M120.048,107.114l-17.303,23.071c-4.668,6.224-11.995,9.887-19.775,9.887H54.131l17.303-23.071  c4.668-6.224,11.995-9.887,19.775-9.887C91.209,107.114,120.048,107.114,120.048,107.114z"/>
<path style="fill:#4B3F4E;" d="M82.97,148.312H45.892c-4.554,0-8.24-3.689-8.24-8.24c0-4.55,3.685-8.24,8.24-8.24H82.97  c5.158,0,10.09-2.466,13.188-6.598l9.881-13.172c6.204-8.26,16.061-13.188,26.368-13.188h28.838c4.554,0,8.24,3.689,8.24,8.24  c0,4.55-3.685,8.24-8.24,8.24h-28.838c-5.158,0-10.09,2.466-13.188,6.598l-9.881,13.172  C103.134,143.383,93.277,148.312,82.97,148.312z"/>
<path style="fill:#DBD9DC;" d="M466.108,98.874L466.108,98.874c-4.551,0-8.24-3.689-8.24-8.24V74.156h16.479v16.479  C474.348,95.186,470.659,98.874,466.108,98.874z"/>
<path style="fill:#6F6571;" d="M457.869,49.437h-17.893c-4.371,0-8.562-1.736-11.653-4.827l-10.238-10.239  c-6.181-6.181-14.563-9.653-23.304-9.653h-36.29c-10.454,0-20.711,2.841-29.675,8.219l-13.8,8.28  c-8.964,5.378-19.221,8.219-29.675,8.219H234.15c-47.635,0-88.497,37.267-89.369,84.893c0,0,0.118,19.527,0.007,0.223  c-0.763,48.419,38.247,87.914,86.493,87.914h84.742c21.517,0,40.734,15.73,42.777,37.151c2.344,24.571-16.916,45.245-41.004,45.245  H260.12c-40.955,0-74.156,33.201-74.156,74.156v49.437h16.479v-32.958c0-31.854,25.823-57.677,57.677-57.677l0,0h54.853  c43.886,0,82.205-33.117,85.041-76.911c3.107-47.989-34.896-87.88-82.217-87.88h-64.5c-17.214,0-32.586-12.585-34.22-29.721  c-1.874-19.657,13.533-36.195,32.803-36.195h131.833v-8.24c0-9.101,7.378-16.479,16.479-16.479h65.916c4.551,0,8.24-3.689,8.24-8.24  v-8.24C474.348,56.815,466.97,49.437,457.869,49.437z"/>
<g>
	<path style="fill:#5D5360;" d="M317.797,173.03H183.465c-21.297,0-38.554-17.209-38.677-38.477   c-0.763,48.419,38.247,87.914,86.493,87.914h84.741c21.518,0,40.734,15.73,42.777,37.151c2.345,24.571-16.916,45.245-41.004,45.245   H260.12c-40.955,0-74.156,33.201-74.156,74.156v37.611c0,4.927-1.472,9.741-4.228,13.825l-11.248,16.671   c-3.186,4.722-3.707,10.755-1.378,15.954l20.617,46.021c1.732,3.866,7.219,3.866,8.951,0l20.617-46.021   c2.329-5.199,1.808-11.232-1.378-15.954l-11.248-16.671c-2.756-4.084-4.228-8.898-4.228-13.825v-21.132   c0-31.854,25.823-57.677,57.677-57.677h54.853c43.886,0,82.205-33.117,85.041-76.911   C403.121,212.921,365.118,173.03,317.797,173.03z"/>
	<path style="fill:#5D5360;" d="M457.869,123.593h-81.808c-13.196,0-25.612-5.142-34.962-14.476L320.21,88.221   c-3.219-3.219-3.219-8.437,0-11.651c3.219-3.219,8.433-3.219,11.651,0l20.889,20.893c6.228,6.224,14.508,9.652,23.311,9.652h81.808   c4.554,0,8.24,3.689,8.24,8.24C466.108,119.904,462.423,123.593,457.869,123.593z"/>
</g>
<g>
	<path style="fill:#6F6571;" d="M144.781,134.331l-0.015,0.001c0,0.076,0.022,0.146,0.022,0.222   c0.001-0.075-0.009-0.147-0.007-0.222C144.781,134.331,144.781,134.331,144.781,134.331z"/>
	<path style="fill:#6F6571;" d="M144.766,134.332c0,0.076,0.022,0.146,0.022,0.222c0.001-0.075-0.009-0.147-0.007-0.222H144.766z"/>
</g>
<circle style="fill:#A5CDFF;" cx="400.19" cy="57.677" r="8.24"/>
</svg>